#!OML:ASF F:\VICON\USERDATA\INSTALL\rory3\rory3.ASF
:FULLY-SPECIFIED
:DEGREES
143
root 0.2567051084987501 17.96194993018981 47.10609729310776 3.5485039636477325 -0.4572981264436935 -1.6742780725267483
lfemur 11.513490036767521 0.6306921897054298 -24.58819644083851
ltibia 21.193037379423345
lfoot 7.956674359435303 -7.272964426764713
ltoes -23.23977879997275
rfemur -54.93690018029022 -4.410301079194489 23.195490272996366
rtibia 123.2875209503046
rfoot -8.751468771776917 -4.556200964937229
rtoes -18.63954037539058
lowerback nan -1.7119471049854802 -2.519740917692508
upperback -1.8583480355856112 -2.4047635770163396 2.72982384360247
thorax -9.928448772297042 -0.8445408963856593 5.259246054074978
lowerneck -20.23405328146093 -2.560893123354016 -2.5473520317796052
upperneck 13.021984086007285 -3.281706755283178 4.252161632594587
head 7.46793135986359 -1.4400753008784304 1.3651924732891658
lclavicle -3.3052752419978734e-14 -4.158559183780479e-15
lhumerus -36.724613012147586 -10.397710849839855 93.44271451869896
lradius 133.08692533683802
lwrist 39.80318131319566
lhand -23.84287553905282 1.6679082224145687
lfingers nan
lthumb 1.9306743614750292 30.776054722328592
rclavicle -3.073857870079587e-14 -4.519986268515368e-15
rhumerus -66.6565080766275 6.191118168668218 -95.76820144905817
rradius 104.2847923824537
rwrist -9.13896733494178
rhand -18.05660833609032 nan
rfingers nan
rthumb 7.749782360656016 11.942446193745134
144
root 0.4008417131692127 18.03577211900081 47.24339530017009 3.0774355419348938 -0.06871698997161335 -0.02401677418226411
lfemur 13.909526759617076 0.431681771846124 -26.453732079616266
ltibia 19.560556681672672
lfoot 11.673338291558029 -9.052685789087155
ltoes -17.741057650297428
rfemur -53.917557287538656 -5.207741732136136 20.85613731335898
rtibia 118.46563982915067
rfoot -9.176528349290823 -3.3486247079080482
rtoes -19.38545826357517
lowerback nan -2.065281328981578 -2.8562784241685253
upperback -1.9594008540061054 -2.9607403363602423 1.9512710795185306
thorax -10.214021411367845 -1.1058568326900102 4.998721712236967
lowerneck -19.86569251493121 -2.373252221099965 -2.3734557565665417
upperneck 13.205712765411613 -3.0683747500507224 4.162044060613281
head 7.4662002425601575 -1.3461498876663687 1.334229804287014
lclavicle -3.0030332997833014e-14 -3.366085553223725e-16
lhumerus -37.00202861212786 -10.68170023876624 93.21784342750293
lradius 132.7794159836261
lwrist 39.56756185112294
lhand -24.05944631500538 2.180259921529595
lfingers nan
lthumb 1.722277530303686 31.298004797654016
rclavicle -2.7900812280097328e-14 -9.167335579640886e-16
rhumerus -67.22169666091247 5.3312123266733185 -94.90565083226805
rradius 104.46919524121714
rwrist -7.7032398204016275
rhand -18.699737358585104 nan
rfingers nan
rthumb 7.112127251235796 11.983282379254774
145
root 0.2624883061721155 18.033187609581855 46.45126356389913 3.4597470711421012 -1.5602389982736324 -2.058648209147793
lfemur 14.548660561999835 0.9685894626716725 -24.447444509777014
ltibia 18.38334234940058
lfoot 14.408146756345715 -9.470424268706076
ltoes -11.72426691957893
rfemur -53.03981355332135 -2.7358760015320103 23.359741094352305
rtibia 113.00767871987165
rfoot -8.80604729062269 -4.6038901143976965
rtoes -20.31995454815168
lowerback nan -1.6184613127139746 -1.665858679552886
upperback -2.56660478497288 -2.0303193462572686 2.638077139654754
thorax -10.683511707482667 -0.6564399546169586 4.796872596393026
lowerneck -18.479246620981804 -2.3371100550850805 -2.4193661084349354
upperneck 13.507528296677826 -3.111595227010184 4.164052701793259
head 7.397963655027239 -1.3640977152267015 1.3462108473687313
lclavicle -2.7667995208763855e-14 -1.2664304816679152e-14
lhumerus -38.124995710435726 -11.043519797095538 93.18445833753408
lradius 132.0268780300565
lwrist 37.942959561402
lhand -22.497488929370224 1.0947616473663158
lfingers nan
lthumb 3.2131537376710817 30.1896644044274
rclavicle -2.50625041821121e-14 -1.3071165803537104e-14
rhumerus -68.52449518639142 4.256505935818879 -94.15995353442472
rradius 104.51127526429194
rwrist -6.809616684502737
rhand -18.78232703231595 nan
rfingers nan
rthumb 7.03477038764615 12.425125471589418
146
root 0.2816514447177161 18.09812199505332 47.19017925450093 3.6984573415394926 -1.9437320661009603 -2.5808487002014484
lfemur 15.87038748738836 0.5605232922230183 -24.230622754104623
ltibia 17.378674025730568
lfoot 16.795760814110658 -9.027971594917368
ltoes -6.546532908226391
rfemur -52.98014878401557 -2.2053405833474216 23.76130275484308
rtibia 107.78008118382431
rfoot -8.585841471231987 -3.937958349954494
rtoes -22.868790375384048
lowerback nan -1.8132251443121694 -1.0174882190048957
upperback -2.9674643877285587 -2.1298519401588605 2.836877042065459
thorax -11.078416240438752 -0.6251520845147736 4.578157439728803
lowerneck -18.901196791441897 -2.422080639043452 -2.504615181569265
upperneck 14.29429406592922 -3.200415696309216 4.08144035099771
head 7.644780396181719 -1.388710412826848 1.3320871423323324
lclavicle -2.2255872129708265e-14 -2.012731107371616e-14
lhumerus -38.783336663236454 -11.389426588029155 93.10537885745529
lradius 131.19533468831307
lwrist 35.66141619838243
lhand -22.015175067341374 -0.7596637350359356
lfingers nan
lthumb 3.693486379648193 28.328349146932077
rclavicle -1.9362501289109942e-14 -2.0351011156733596e-14
rhumerus -69.07938702310724 3.7247551939034675 -93.21622498269892
rradius 104.57926438538564
rwrist -6.487954758920733
rhand -18.68903860931069 nan
rfingers nan
rthumb 7.125417678729681 12.724037903980392
